<svg xmlns="http://www.w3.org/2000/svg" viewBox="0 0 128 128"><defs><style>.cls-1{isolation:isolate;}.cls-2{mix-blend-mode:multiply;}.cls-3{fill:#b78d5c;}.cls-4{fill:#9b6f43;}.cls-5{fill:#5b361d;}</style></defs><title>brown-bear</title><g class="cls-1"><g id="icons" class="cls-2"><path class="cls-3" d="M105,72c0,22.64-11,33-41,33S23,94.64,23,72,41.36,23,64,23,105,49.36,105,72Z"/><path class="cls-4" d="M48.49,27.22C40.16,31.87,33.2,39.91,28.67,49.09A16,16,0,1,1,48.49,27.22Z"/><path class="cls-4" d="M110,34A16,16,0,0,1,99.33,49.09C94.8,39.91,87.84,31.87,79.51,27.22A16,16,0,0,1,110,34Z"/><circle cx="81" cy="52" r="4"/><circle cx="47" cy="52" r="4"/><circle class="cls-4" cx="64" cy="77" r="20"/><path class="cls-5" d="M70.45,82.23l-.16.06c-.71.29-1.89.93-2.91,1.34A1,1,0,0,1,66,82.7V77.13a2,2,0,0,1,1.33-1.88c2.35-.89,4.67-2.46,4.67-3.92C72,69.12,68.42,68,64,68s-8,1.12-8,3.33c0,1.46,2.33,3,4.67,3.92A2,2,0,0,1,62,77.13V82.7a1,1,0,0,1-1.38.93c-1-.41-2.2-1-2.91-1.34l-.16-.07a1,1,0,0,0-1.25,1.48,8.78,8.78,0,0,0,3.21,3.06,8.79,8.79,0,0,0,9,0,8.78,8.78,0,0,0,3.21-3.06,1,1,0,0,0-1.26-1.48Z"/></g></g></svg>